<?xml version="1.0" encoding="UTF-8" standalone="no"?>
<svg
   xmlns:dc="http://purl.org/dc/elements/1.1/"
   xmlns:cc="http://creativecommons.org/ns#"
   xmlns:rdf="http://www.w3.org/1999/02/22-rdf-syntax-ns#"
   xmlns:svg="http://www.w3.org/2000/svg"
   xmlns="http://www.w3.org/2000/svg"
   xmlns:sodipodi="http://sodipodi.sourceforge.net/DTD/sodipodi-0.dtd"
   xmlns:inkscape="http://www.inkscape.org/namespaces/inkscape"
   viewBox="0.0 0.0 348.0 348.0"
   fill="none"
   version="1.1"
   id="svg6"
   sodipodi:docname="Symbol Select.svg"
   inkscape:version="0.92.3 (2405546, 2018-03-11)">
  <metadata
     id="metadata12">
    <rdf:RDF>
      <cc:Work
         rdf:about="">
        <dc:format>image/svg+xml</dc:format>
        <dc:type
           rdf:resource="http://purl.org/dc/dcmitype/StillImage" />
        <dc:title />
      </cc:Work>
    </rdf:RDF>
  </metadata>
  <defs
     id="defs10" />
  <sodipodi:namedview
     pagecolor="#ffffff"
     bordercolor="#666666"
     borderopacity="1"
     objecttolerance="10"
     gridtolerance="10"
     guidetolerance="10"
     inkscape:pageopacity="0"
     inkscape:pageshadow="2"
     inkscape:window-width="1366"
     inkscape:window-height="705"
     id="namedview8"
     showgrid="false"
     inkscape:zoom="1.9181287"
     inkscape:cx="121.38357"
     inkscape:cy="228.08806"
     inkscape:window-x="-8"
     inkscape:window-y="-8"
     inkscape:window-maximized="1"
     inkscape:current-layer="svg6" />
  <path
     d="M5.079 5.776h336.913v337.67H5.08z"
     stroke-width="2"
     stroke="#000"
     id="path2"
     style="fill:#4d4d4d" />
  <path
     d="m 289.51144,39.511317 c 0,-8.376 6.966,-15.165 15.56,-15.165 4.126,0 8.084,1.597 11.001,4.441 2.918,2.844 4.558,6.702 4.558,10.724 0,8.376 -6.966,15.165 -15.56,15.165 -8.593,0 -15.559,-6.79 -15.559,-15.165 z"
     id="path4"
     style="fill:#1a1a1a;stroke:#000000;stroke-width:2"
     inkscape:connector-curvature="0" />
  <rect
     style="opacity:1;fill:#0f0f0f;fill-opacity:1;stroke:#000000;stroke-width:2;stroke-linecap:round;stroke-linejoin:round;stroke-miterlimit:4;stroke-dasharray:none;stroke-opacity:1"
     id="rect901"
     width="237.21037"
     height="241.38104"
     x="22.417683"
     y="82.637199"
     ry="0" />
  <rect
     style="opacity:1;fill:#666666;fill-opacity:1;stroke:#000000;stroke-width:2.09380317;stroke-linecap:round;stroke-linejoin:round;stroke-miterlimit:4;stroke-dasharray:none;stroke-opacity:1"
     id="rect822"
     width="70.68586"
     height="231.4146"
     x="27.110617"
     y="88.000145" />
  <path
     style="opacity:1;fill:#666666;fill-opacity:1;stroke:#000000;stroke-width:2.09380317;stroke-linecap:round;stroke-linejoin:round;stroke-miterlimit:4;stroke-dasharray:none;stroke-opacity:1"
     d="M 105.85913,88.125715 V 319.54173 h 70.68555 V 88.125715 Z"
     id="rect822-4"
     inkscape:connector-curvature="0" />
  <rect
     style="opacity:1;fill:#666666;fill-opacity:1;stroke:#000000;stroke-width:2.09380317;stroke-linecap:round;stroke-linejoin:round;stroke-miterlimit:4;stroke-dasharray:none;stroke-opacity:1"
     id="rect822-7"
     width="70.68586"
     height="231.4146"
     x="184.14182"
     y="88.1418" />
  <rect
     style="opacity:1;fill:#000000;fill-opacity:1;stroke:#000000;stroke-width:2;stroke-linecap:round;stroke-linejoin:round;stroke-miterlimit:4;stroke-dasharray:none;stroke-opacity:1"
     id="rect847"
     width="26.067072"
     height="11.990853"
     x="49.527435"
     y="100.21011" />
  <g
     aria-label="չ"
     style="font-style:normal;font-variant:normal;font-weight:normal;font-stretch:normal;font-size:64px;line-height:1.25;font-family:Arial;-inkscape-font-specification:Arial;text-align:center;letter-spacing:0px;word-spacing:0px;text-anchor:middle;fill:#000000;fill-opacity:1;stroke:none"
     id="text851">
    <path
       d="m 71.351372,225.53964 v 4.84375 h -14.34375 q -2.71875,0 -4.46875,-1.5625 -1.75,-1.53125 -1.75,-4.3125 0,-1.78125 1.53125,-4.09375 1.5625,-2.3125 4.5,-5.25 l 3.21875,-3.1875 q 1.5625,-1.5625 2.875,-3 1.34375,-1.4375 2.0625,-2.625 -6.84375,-3.03125 -8.6875,-4.78125 -1.8125,-1.75 -2.8125,-3.6875 -0.96875,-1.9375 -0.96875,-5.71875 0,-1.53125 0.15625,-3.09375 l 0.5,-4.59375 h 5.6875 q -0.25,1.625 -0.5,3.59375 -0.21875,1.96875 -0.21875,3.5 0,2.84375 0.65625,4.1875 0.65625,1.34375 2.625,2.9375 1.96875,1.59375 4.8125,2.84375 2.875,1.25 6.25,2.5625 -1.40625,2.96875 -4.1875,6.125 -2.75,3.15625 -7.21875,7.5 -4.46875,4.375 -4.46875,6.34375 0,0.71875 0.5625,1.09375 0.59375,0.375 1.25,0.375 z"
       style=""
       id="path840" />
  </g>
  <rect
     style="opacity:1;fill:#000000;fill-opacity:1;stroke:#000000;stroke-width:2;stroke-linecap:round;stroke-linejoin:round;stroke-miterlimit:4;stroke-dasharray:none;stroke-opacity:1"
     id="rect847-1"
     width="26.067072"
     height="11.990853"
     x="128.27596"
     y="100.4898" />
  <g
     aria-label="ᱩ"
     style="font-style:normal;font-variant:normal;font-weight:normal;font-stretch:normal;font-size:64px;line-height:1.25;font-family:Arial;-inkscape-font-specification:Arial;text-align:center;letter-spacing:0px;word-spacing:0px;text-anchor:middle;fill:#000000;fill-opacity:1;stroke:none"
     id="text851-2">
    <path
       d="m 130.4124,197.29239 11.8125,-8.25 h 0.1875 q 3.34375,1.6875 5.90625,3.9375 2.5625,2.25 4.28125,4.9375 1.75,2.65625 2.625,5.65625 0.875,3 0.875,6.1875 0,3.3125 -0.9375,6.40625 -0.9375,3.09375 -2.75,5.78125 -1.78125,2.6875 -4.40625,4.875 -2.59375,2.1875 -5.90625,3.625 h -0.1875 l -17.28125,-9.75 2.375,-3.96875 14.5625,8.125 h 0.1875 q 2.3125,-1.3125 4.0625,-3 1.75,-1.6875 2.90625,-3.625 1.1875,-1.96875 1.75,-4.125 0.59375,-2.1875 0.59375,-4.46875 0,-2.15625 -0.53125,-4.28125 -0.5,-2.125 -1.5625,-4.0625 -1.0625,-1.96875 -2.65625,-3.65625 -1.5625,-1.71875 -3.65625,-3 h -0.1875 l -13.1875,9.125 h -4.0625 v -19.96875 h 5 v 13.5 z"
       style=""
       id="path837" />
  </g>
  <rect
     style="opacity:1;fill:#000000;fill-opacity:1;stroke:#000000;stroke-width:2;stroke-linecap:round;stroke-linejoin:round;stroke-miterlimit:4;stroke-dasharray:none;stroke-opacity:1"
     id="rect847-7"
     width="26.067072"
     height="11.990853"
     x="206.55864"
     y="100.76514" />
  <g
     aria-label="Հ"
     style="font-style:normal;font-variant:normal;font-weight:normal;font-stretch:normal;font-size:64px;line-height:1.25;font-family:Arial;-inkscape-font-specification:Arial;text-align:center;letter-spacing:0px;word-spacing:0px;text-anchor:middle;fill:#000000;fill-opacity:1;stroke:none"
     id="text851-0">
    <path
       d="m 234.36275,229.53648 h -6.0625 v -12.28125 q 0,-4.59375 -2.59375,-6.625 -2.5625,-2.0625 -8,-2.0625 h -16.03125 v -5.40625 h 16.03125 q 4.28125,0 6.34375,-1.78125 2.0625,-1.8125 2.0625,-5.46875 0,-3.21875 -2.1875,-5 -2.15625,-1.78125 -6.21875,-1.78125 h -12.875 v -5.40625 h 12.875 q 6.78125,0 10.625,3.21875 3.875,3.21875 3.875,8.6875 0,3.3125 -1.59375,6.15625 -1.59375,2.84375 -4.09375,3.875 3.8125,1.0625 5.8125,3.84375 2.03125,2.78125 2.03125,7.0625 z"
       style=""
       id="path834" />
  </g>
</svg>
